<svg xmlns="http://www.w3.org/2000/svg" width="760" height="288">
  <path d="M0 0h760v288H0z" fill="#BA271E"/>
  <path d="m520.395 33.902 4.012.005q5.157.006 10.312.024 5.312.014 10.623.02Q555.67 33.967 566 34c5.045 13.15 9.665 26.435 14.25 39.75l2.34 6.776 4.888 14.165c3.803 11.025 7.62 22.045 11.437 33.066q2.892 8.347 5.78 16.696l1.938 5.599L608 154c5.279-14.127 10.307-28.335 15.278-42.573 6.549-18.75 13.131-37.487 19.847-56.177l.883-2.461q1.217-3.387 2.437-6.773l.705-1.959A298 298 0 0 1 651 34q13.834-.07 27.668-.104 6.423-.014 12.847-.047 6.195-.032 12.39-.039 2.367-.004 4.735-.021a912 912 0 0 1 6.615-.016l3.81-.014C722 34 722 34 724 36c.198 2.791.27 5.483.254 8.275l.01 2.625c.007 2.919.001 5.837-.005 8.756q.003 3.13.01 6.257c.01 5.678.006 11.355 0 17.033-.005 5.93 0 11.86.002 17.79q.005 14.94-.01 29.881-.015 17.295.003 34.59.014 14.826.006 29.651-.007 8.865.003 17.73.007 8.333-.01 16.665-.004 3.066.002 6.132c.006 2.78-.001 5.56-.011 8.34l.013 2.477c-.039 5.57-.039 5.57-2.267 7.798h-53l-1-133-9 27c-2.067 5.99-4.135 11.98-6.233 17.958q-1.402 3.999-2.8 7.999-4.51 12.899-9.037 25.792-2.015 5.745-4.026 11.492-1.4 3.993-2.805 7.984c-3.25 9.266-6.358 18.559-9.231 27.95-1.766 5.723-1.766 5.723-2.868 6.825-2.594.089-5.16.115-7.754.098l-2.35-.005c-2.486-.005-4.972-.018-7.458-.03l-5.045-.014q-6.197-.017-12.393-.049c-3.54-7.39-6.129-15.028-8.676-22.805l-1.34-4.051q-1.42-4.288-2.833-8.579a9086 9086 0 0 0-8.162-24.634c-4.966-14.941-10.096-29.822-15.332-44.67l-.854-2.424q-.753-2.134-1.511-4.267c-2.533-7.155-4.903-14.366-7.292-21.57l-.013 1.73q-.156 20.964-.326 41.929-.083 10.139-.158 20.277-.072 9.804-.156 19.607-.03 3.72-.056 7.442c-.079 11.214-.159 22.42-.748 33.621l-.116 2.267c-.3 5-.3 5-1.427 6.127a84 84 0 0 1-4.963.13l-3.205.009-3.488-.006-3.554.003q-3.728 0-7.455-.006c-3.818-.005-7.637 0-11.456.007q-3.612 0-7.223-.004l-3.488.006-3.205-.01-2.837-.002C485 250 485 250 484 249a211 211 0 0 1-.12-8.245l-.003-2.65c-.002-2.955.004-5.909.01-8.863l-.001-6.326q.001-8.615.013-17.23.007-8.992.008-17.986.005-17.041.021-34.084.016-19.396.022-38.792.016-39.912.05-79.824 5-.25 10.001-.493l2.832-.142c7.86-.381 15.691-.496 23.562-.463" fill="#FBFAFA"/>
  <path d="m55.9 33.619 2.03-.014c2.232-.012 4.463-.003 6.695.007q2.407-.006 4.816-.016a2469 2469 0 0 1 13.053.001c4.559.008 9.117 0 13.676-.004q11.482-.007 22.966.016c8.844.016 17.687.01 26.53-.006q11.4-.02 22.798-.007c4.536.004 9.071.005 13.607-.005q6.399-.013 12.797.015 2.344.006 4.689-.004c2.139-.008 4.277.002 6.416.017l3.621.003c5.327.591 9.227 2.389 13.313 5.818 3.418 4.56 2.709 10.079 2.581 15.52l-.015 3.08c-.026 3.779-.096 7.557-.16 11.335L225 95h-62l-1-14q-11.425-.075-22.852-.11-3.887-.016-7.775-.04a2701 2701 0 0 0-11.17-.045l-3.517-.032h-3.275l-2.88-.014c-2.67.254-4.271.825-6.531 2.241-2.578 3.49-2.333 7.222-2.375 11.438l-.086 3.933c.543 4.277 1.463 5.593 4.461 8.629 2.924 1.288 2.924 1.288 6.344 1.988l1.96.474c2.228.531 4.462 1.034 6.696 1.538l5.094 1.197a1994 1994 0 0 0 14.328 3.292q4.712 1.07 9.422 2.15c9.28 2.124 18.562 4.236 27.857 6.292 3.558.789 7.115 1.587 10.67 2.386q2.473.55 4.948 1.088c23.516 5.099 23.516 5.099 30.681 15.595 1.667 3.334 1.166 7.078 1.177 10.745l.02 2.745q.028 4.51.041 9.022l.013 3.11q.03 8.153.044 16.305c.011 5.612.046 11.222.085 16.833.027 4.317.035 8.632.038 12.949q.008 3.102.035 6.204c.025 2.898.024 5.796.017 8.695l.039 2.578c-.05 5.762-.984 9.184-4.509 13.814-6.497 5.672-14.759 4.563-22.922 4.518q-2.438.008-4.875.02c-4.401.019-8.802.012-13.202 0-4.612-.01-9.224-.001-13.836.005q-11.616.01-23.231-.022a5482 5482 0 0 0-26.835.008q-11.533.026-23.066.01c-4.588-.006-9.176-.007-13.764.006q-6.471.017-12.943-.02a531 531 0 0 0-4.741.006C46.44 250.608 46.44 250.608 41 246c-2.797-3.51-3.372-6.089-3.34-10.525V232.2l.047-3.5.013-3.611c.017-3.801.054-7.601.092-11.401q.024-3.87.042-7.737.05-9.475.146-18.951 12.1-.034 24.2-.052 5.617-.007 11.235-.023 5.418-.016 10.835-.02 2.07-.003 4.142-.01c1.928-.008 3.855-.008 5.783-.009l3.331-.006C100 187 100 187 101 188c.204 2.745.32 5.488.426 8.238.766 3.685 1.466 4.587 4.574 6.762 3.7.614 7.373.56 11.117.531l3.303.012q3.458.004 6.914-.022c3.521-.02 7.04 0 10.56.026q3.362-.004 6.723-.016l3.183.025c5.954-.076 9.796-.351 14.2-4.556.87-2.016.87-2.016.727-4.187l-.004-2.368-.098-2.445.02-2.445c-.037-4.656-.037-4.656-2.218-8.685-3.083-2.376-6.13-3.156-9.857-3.983l-2.223-.53a889 889 0 0 0-7.222-1.67q-2.526-.592-5.05-1.189c-4.235-.997-8.474-1.978-12.714-2.954-3.443-.793-6.882-1.598-10.322-2.403q-7.252-1.695-14.508-3.383L91 161l-2.128-.497a3047 3047 0 0 1-13.44-3.172q-2.145-.51-4.293-1.011c-22.281-5.208-22.281-5.208-27.639-11.757l-1.906-2.247c-3.669-5.331-3.895-9.958-3.9-16.234l-.026-2.692c-.024-2.93-.032-5.861-.04-8.792l-.026-6.124a4039 4039 0 0 1-.028-12.828 2234 2234 0 0 0-.088-16.426c-.03-4.215-.037-8.43-.038-12.645a733 733 0 0 0-.038-6.055 607 607 0 0 1-.01-8.473l-.044-2.518c.05-3.968.35-6.703 2.806-9.907 4.94-4.565 9.055-5.997 15.738-6.003m251.96-.137q2.052-.008 4.103-.02c3.686-.019 7.372-.012 11.058 0 3.872.01 7.743.001 11.615-.005q9.747-.01 19.493.022c7.498.021 14.994.014 22.491-.008q9.685-.026 19.37-.01c3.847.006 7.695.007 11.542-.006q5.425-.017 10.85.02c1.95.007 3.9-.005 5.85-.017 7.93.076 13.866.829 19.747 6.425 1.345 2.79 1.381 4.892 1.362 7.987l-.001 3.579-.047 3.848-.013 3.951c-.011 3.46-.04 6.918-.074 10.377-.03 3.532-.045 7.065-.06 10.598-.03 6.926-.089 13.85-.146 20.777l-54 1-1-11c-1.554-4.353-1.554-4.353-5-7a79 79 0 0 0-4.662-.177l-2.933-.039-3.178-.022-3.259-.025q-3.417-.02-6.834-.032c-3.488-.017-6.975-.061-10.462-.105q-3.317-.015-6.633-.026l-3.166-.053c-5.627-.088-5.627-.088-10.5 2.38-1.954 2.987-2.5 4.64-2.513 8.171l-.018 2.583-.003 2.84-.015 2.987q-.021 4.907-.027 9.815l-.017 6.809q-.015 7.148-.02 14.294a4862 4862 0 0 1-.058 18.313c-.019 4.691-.024 9.382-.026 14.073q-.004 3.375-.024 6.75c-.017 3.151-.015 6.3-.008 9.451l-.028 2.816c.033 5.11.38 8.851 3.384 13.197 2.795 1.991 5.123 2.255 8.506 2.275l2.68.029 2.873-.003 2.973.013q3.111.008 6.221.002c3.17-.003 6.338.02 9.507.045q3.024.004 6.049.002l2.866.028c4.897-.034 8.39-.117 12.325-3.391 2.404-4.807 1.617-10.639 2-16h55c.105 7.843.205 15.684.259 23.528.026 3.653.061 7.305.118 10.957.055 3.521.084 7.041.097 10.563.014 1.99.053 3.981.092 5.972.004 10.105.004 10.105-2.722 13.726-4.652 3.687-9.081 4.502-14.927 4.528l-3.627.03-3.94.002-4.18.026c-3.775.022-7.55.03-11.325.035q-3.543.006-7.087.017-12.378.037-24.758.042a4530 4530 0 0 0-23.022.075q-9.904.051-19.81.05c-3.937.002-7.874.01-11.811.039q-5.56.038-11.12.012c-1.995-.003-3.99.02-5.984.042-9.16-.074-15.45-2.092-22.804-7.53-11.35-11.602-12.752-24.371-12.74-39.99q-.008-2.235-.02-4.468c-.017-4.023-.022-8.046-.024-12.069q-.001-3.779-.01-7.557-.028-13.209-.026-26.418c.002-8.182-.02-16.363-.051-24.545q-.038-10.57-.036-21.142c0-4.199-.005-8.397-.026-12.596q-.029-5.93-.005-11.857a437 437 0 0 0-.015-4.324c-.11-14.033 2.555-24.805 12.317-35.05 8.875-8.464 18.144-9.692 30.047-9.616" fill="#FCFBFB"/>
  <path d="M724 36h1q.07 41.605.104 83.212.014 19.317.047 38.634.03 16.83.037 33.662.003 8.917.023 17.834.02 8.385.015 16.768 0 3.086.012 6.17c.01 2.798.008 5.596.003 8.393l.017 2.494c-.03 5.605-.03 5.605-2.258 7.833-2.329.24-2.329.24-5.276.227h-3.336l-3.615-.032-3.69-.008c-3.903-.011-7.805-.037-11.708-.062q-3.96-.016-7.922-.027-9.727-.034-19.453-.098c-1.22-2.44-1.138-4.03-1.158-6.758l-.03-3.043-.017-3.35-.03-3.518q-.047-5.778-.081-11.558l-.063-7.995q-.074-9.461-.138-18.923-.076-10.77-.16-21.54-.17-22.157-.323-44.315l-2 1c.568-5.455 1.946-9.91 4-15h1v134c29.636 5.198 29.636 5.198 54-2 .11-2.73.155-5.437.158-8.169l.015-2.626q.022-4.39.032-8.78l.03-6.266q.04-8.535.068-17.07.035-8.908.076-17.817.074-16.882.138-33.765.076-19.215.16-38.43.17-39.539.323-79.077" fill="#B21612"/>
  <path d="m216 250-4 1v2q-31.41.106-62.82.155-14.583.022-29.167.071-12.708.046-25.416.056-6.732.004-13.463.035-6.333.03-12.664.022-2.328.001-4.655.019c-2.114.014-4.228.011-6.342.003l-3.59.008C51 253 51 253 49.096 251.477L48 250q32.414-.231 64.828-.443 15.048-.098 30.098-.205 13.113-.095 26.226-.177 6.948-.044 13.894-.096 6.532-.049 13.065-.086 2.403-.014 4.806-.035 3.27-.026 6.54-.04l3.704-.025C214 249 214 249 216 250" fill="#BD312A"/>
  <path d="M666 125h1v75h-1l-1-66-2 3c-.625-2.312-.625-2.312-1-5l2-3 1 1z" fill="#BC3027"/>
</svg>
